<svg xmlns="http://www.w3.org/2000/svg" viewBox="0 0 56 56" role="img" aria-label="Sparse density tile">
  <title>Sparse</title>
  <rect width="56" height="56" rx="3" fill="#fafafa"/>
    <rect x="0" y="0" width="7" height="7" rx="1" fill="#f0f0f0"/>
    <rect x="8" y="0" width="7" height="7" rx="1" fill="#f0f0f0"/>
    <rect x="16" y="0" width="7" height="7" rx="1" fill="#f0f0f0"/>
    <rect x="24" y="0" width="7" height="7" rx="1" fill="#f0f0f0"/>
    <rect x="32" y="0" width="7" height="7" rx="1" fill="#f0f0f0"/>
    <rect x="40" y="0" width="7" height="7" rx="1" fill="#f0f0f0"/>
    <rect x="48" y="0" width="7" height="7" rx="1" fill="#f0f0f0"/>
    <rect x="0" y="8" width="7" height="7" rx="1" fill="#f0f0f0"/>
    <rect x="8" y="8" width="7" height="7" rx="1" fill="#c5d86d"/>
    <rect x="16" y="8" width="7" height="7" rx="1" fill="#f0f0f0"/>
    <rect x="24" y="8" width="7" height="7" rx="1" fill="#f0f0f0"/>
    <rect x="32" y="8" width="7" height="7" rx="1" fill="#f0f0f0"/>
    <rect x="40" y="8" width="7" height="7" rx="1" fill="#f0f0f0"/>
    <rect x="48" y="8" width="7" height="7" rx="1" fill="#f0f0f0"/>
    <rect x="0" y="16" width="7" height="7" rx="1" fill="#f0f0f0"/>
    <rect x="8" y="16" width="7" height="7" rx="1" fill="#f0f0f0"/>
    <rect x="16" y="16" width="7" height="7" rx="1" fill="#f0f0f0"/>
    <rect x="24" y="16" width="7" height="7" rx="1" fill="#f0f0f0"/>
    <rect x="32" y="16" width="7" height="7" rx="1" fill="#f0f0f0"/>
    <rect x="40" y="16" width="7" height="7" rx="1" fill="#f0f0f0"/>
    <rect x="48" y="16" width="7" height="7" rx="1" fill="#f0f0f0"/>
    <rect x="0" y="24" width="7" height="7" rx="1" fill="#f0f0f0"/>
    <rect x="8" y="24" width="7" height="7" rx="1" fill="#f0f0f0"/>
    <rect x="16" y="24" width="7" height="7" rx="1" fill="#f0f0f0"/>
    <rect x="24" y="24" width="7" height="7" rx="1" fill="#f0f0f0"/>
    <rect x="32" y="24" width="7" height="7" rx="1" fill="#c5d86d"/>
    <rect x="40" y="24" width="7" height="7" rx="1" fill="#f0f0f0"/>
    <rect x="48" y="24" width="7" height="7" rx="1" fill="#f0f0f0"/>
    <rect x="0" y="32" width="7" height="7" rx="1" fill="#f0f0f0"/>
    <rect x="8" y="32" width="7" height="7" rx="1" fill="#f0f0f0"/>
    <rect x="16" y="32" width="7" height="7" rx="1" fill="#f0f0f0"/>
    <rect x="24" y="32" width="7" height="7" rx="1" fill="#f0f0f0"/>
    <rect x="32" y="32" width="7" height="7" rx="1" fill="#f0f0f0"/>
    <rect x="40" y="32" width="7" height="7" rx="1" fill="#f0f0f0"/>
    <rect x="48" y="32" width="7" height="7" rx="1" fill="#f0f0f0"/>
    <rect x="0" y="40" width="7" height="7" rx="1" fill="#f0f0f0"/>
    <rect x="8" y="40" width="7" height="7" rx="1" fill="#f0f0f0"/>
    <rect x="16" y="40" width="7" height="7" rx="1" fill="#c5d86d"/>
    <rect x="24" y="40" width="7" height="7" rx="1" fill="#f0f0f0"/>
    <rect x="32" y="40" width="7" height="7" rx="1" fill="#f0f0f0"/>
    <rect x="40" y="40" width="7" height="7" rx="1" fill="#f0f0f0"/>
    <rect x="48" y="40" width="7" height="7" rx="1" fill="#f0f0f0"/>
    <rect x="0" y="48" width="7" height="7" rx="1" fill="#f0f0f0"/>
    <rect x="8" y="48" width="7" height="7" rx="1" fill="#f0f0f0"/>
    <rect x="16" y="48" width="7" height="7" rx="1" fill="#f0f0f0"/>
    <rect x="24" y="48" width="7" height="7" rx="1" fill="#f0f0f0"/>
    <rect x="32" y="48" width="7" height="7" rx="1" fill="#f0f0f0"/>
    <rect x="40" y="48" width="7" height="7" rx="1" fill="#f0f0f0"/>
    <rect x="48" y="48" width="7" height="7" rx="1" fill="#f0f0f0"/>
</svg>
